<svg id="Layer_1" data-name="Layer 1" xmlns="http://www.w3.org/2000/svg" viewBox="0 0 500 500"><title>four-line-border</title><rect x="2.5" y="2.5" width="495" height="495" style="fill:#fff"/><path d="M495,5V495H5V5H495m5-5H0V500H500V0Z"/><rect x="12.5" y="12.5" width="475" height="475" style="fill:#fff"/><path d="M485,15V485H15V15H485m5-5H10V490H490V10Z"/><rect x="22.5" y="22.5" width="455" height="455" style="fill:#fff"/><path d="M475,25V475H25V25H475m5-5H20V480H480V20Z"/><rect x="32.5" y="32.5" width="435" height="435" style="fill:#fff"/><path d="M465,35V465H35V35H465m5-5H30V470H470V30Z"/></svg>